<svg width="26" height="26" viewBox="0 0 26 26" fill="none" xmlns="http://www.w3.org/2000/svg">
<path d="M16.2951 15.4198C17.2733 14.2356 17.8911 12.7168 17.8911 11.0436C17.8911 7.28515 14.8278 4.22179 11.0693 4.22179C7.31093 4.22179 4.24756 7.28515 4.24756 11.0436C4.24756 14.802 7.31093 17.8654 11.0693 17.8654C12.7169 17.8654 14.2614 17.2733 15.4456 16.2693L20.7485 21.5723C20.8773 21.701 21.0317 21.7525 21.1862 21.7525C21.3406 21.7525 21.4951 21.701 21.6238 21.5723C21.8555 21.3406 21.8555 20.9287 21.6238 20.697L16.2951 15.4198ZM11.0436 16.6297C7.95449 16.6297 5.45746 14.1327 5.45746 11.0436C5.45746 7.95446 7.95449 5.45743 11.0436 5.45743C14.1327 5.45743 16.6297 7.95446 16.6297 11.0436C16.6297 14.1327 14.1327 16.6297 11.0436 16.6297Z" fill="white"/>
</svg>
